
<svg xmlns="http://www.w3.org/2000/svg" fill="none" viewBox="0 0 61 68" style="opacity: 0.7; height: 68px;"><path fill="#fff" d="M20.965 38.877a2 2 0 0 0 .248-.206c.042-.046.11-.063.143-.118q.077-.087.172-.155c.101-.08.21-.16.307-.248.244-.227.53-.42.76-.651q.163-.11.295-.253.07-.062.147-.117a.29.29 0 0 1 .302-.05l.223.067.42.105c.227.063.446.134.669.201h.088a3 3 0 0 1 0-.336h-.034l-.6-.189-.593-.193-.076-.042-.134-.093a.52.52 0 0 1-.253-.458v-6.03a.7.7 0 0 1 .043-.256.36.36 0 0 1 .31-.219q.193.006.37.08l.093.034.386.122.694.205.912.29c.706.232 1.407.471 2.1.685q.318.106.618.253.033.015.055.046a.45.45 0 0 1 .088.256l.009 5.614a.35.35 0 0 1 0 .16l-.143-.038-1.442-.466-1.647-.534c-.05 0-.097-.05-.155-.034.033.194 0 .521.02.677l.576.185 1.13.37.316.105.538.168a.37.37 0 0 1 .218.214q.088.173.139.361a.2.2 0 0 1 0 .181c0 .046-.038.088 0 .151.193-.218.357-.445.534-.663.176-.22.344-.42.512-.648.168-.227.35-.445.53-.66.18-.214.344-.42.517-.65.172-.232.365-.421.53-.677v-10.17q.02-.553.104-1.1v-.127a.24.24 0 0 0-.151 0l-1.135.059-.42.025h-.214a.9.9 0 0 0-.328.06.27.27 0 0 1-.197 0l-.698-.236c-.26-.084-.513-.18-.777-.244l-.152-.05-.42-.148-.95-.319h-.084l-.487-.147c-.105-.03-.202-.071-.303-.1-.243-.076-.474-.177-.723-.236a3 3 0 0 1-.382-.126c-.059 0-.11-.042-.164-.059a2.5 2.5 0 0 1-.454-.248c-.105-.055-.163-.164-.268-.219s-.085-.092-.13-.134a1.3 1.3 0 0 1-.144-.118 3 3 0 0 1-.214-.235c-.034-.054-.088-.1-.126-.155s-.08-.143-.122-.206-.105-.105-.139-.168c-.033-.063-.113-.122-.16-.202-.046-.08-.121-.122-.167-.193s-.105-.11-.148-.177a1 1 0 0 0-.08-.096 1 1 0 0 1-.104-.114l-.181-.227s0-.03-.055 0c-.054.03 0 .118 0 .18v18.625c0 .021-.004.046.038.059m2.076-10.859v-4.576q0-.167.025-.332a.315.315 0 0 1 .336-.277q.146.007.286.046c.114.03.223.076.332.113s.11.043.164.055q.165.036.324.093c.42.134.84.277 1.24.42.525.16 1.05.336 1.575.504l.992.332a.7.7 0 0 1 .214.088.32.32 0 0 1 .156.215q.046.206.046.42v5.463a.7.7 0 0 1 0 .13c0 .155-.093.218-.244.19a4 4 0 0 0-.53-.16c-.382-.135-.773-.257-1.16-.383l-.15-.05-.904-.274-.924-.306-.454-.156-.513-.155c-.126-.042-.248-.076-.37-.126a2 2 0 0 1-.29-.194.17.17 0 0 1-.058-.096 1.1 1.1 0 0 1-.076-.311 5 5 0 0 1-.017-.673m31.32-1.386-.728.046-1.117.071a.5.5 0 0 0-.177.026c0 .138.03.264.042.395.013.13.046.294.046.445v4.782a.4.4 0 0 1 0 .067.214.214 0 0 1-.264.126 1 1 0 0 1-.169-.05.5.5 0 0 0-.08-.03q-.164-.03-.319-.092c-.26-.08-.508-.189-.777-.244l-.097-.03c-.32-.108-.639-.23-.966-.318-.21-.06-.42-.13-.622-.198l-1.076-.349a2.3 2.3 0 0 1-.353-.134.6.6 0 0 1-.32-.391 1 1 0 0 0 0-.097 2.7 2.7 0 0 1-.029-.525v-2.853a7 7 0 0 1 0-.715c.025-.172 0-.344.038-.52a.6.6 0 0 1 .076-.228.26.26 0 0 1 .256-.134q.16.013.307.076c.218.08.44.142.664.214l.84.269.538.172.509.172.596.185c.093.03.19.047.277.084q.092.041.19.068l.206.063a2.4 2.4 0 0 0 0-.35l-.374-.138-.055-.02a1.4 1.4 0 0 1-.32-.09l-.705-.226c-.156-.05-.311-.105-.471-.147-.244-.072-.483-.164-.727-.24a.8.8 0 0 1-.336-.193v-.1a.29.29 0 0 1 .117-.308l.5-.386c.127-.097.265-.19.387-.294l.206-.156a2 2 0 0 0 .202-.16q.121-.09.218-.205a.33.33 0 0 0-.059-.454 4 4 0 0 0-.298-.223 37 37 0 0 0-.672-.45 5 5 0 0 1-.694-.512 1 1 0 0 0-.084-.055c-.067-.059-.126-.13-.201-.185-.181-.126-.34-.273-.513-.42h-.067q-.017.142 0 .286.025.12.025.243a.5.5 0 0 0 0 .13q.026.106.02.215a.6.6 0 0 0 0 .147q.03.135.026.273l.038.77a.4.4 0 0 0 0 .07c.038.152 0 .312.038.463v.349q0 .175-.046.344a.31.31 0 0 1-.374.24c-.157-.047-.3-.13-.42-.24-.03-.067-.11-.075-.152-.13a.4.4 0 0 0-.172-.151c-.093-.118-.248-.172-.311-.315s-.19-.227-.294-.337c-.105-.109-.101-.126-.156-.184l-.168-.215a1.5 1.5 0 0 1-.172-.193c-.08-.114-.185-.21-.265-.324 0 0-.038-.025-.076 0v7.069a.26.26 0 0 1-.353.092l-.109-.046-.08-.026-.32-.092-.84-.269c-.037 0-.084 0-.134-.03a1.7 1.7 0 0 0 0 .358l.059.025.613.177h.042l.547.193q.21.059.39.18a.35.35 0 0 1 .169.286v.803a.1.1 0 0 1 0 .055.8.8 0 0 0 0 .247v.13c0 .114 0 .232-.026.35s0 .29 0 .42q0 .225-.025.45-.047.284-.067.575v.055a2 2 0 0 0-.03.189q-.037.39-.067.782a1 1 0 0 1-.025.16q-.128.484-.256.97c0 .055-.026.113-.034.172a1.5 1.5 0 0 1-.134.458.6.6 0 0 0-.064.19q-.05.243-.15.47c-.068.177-.144.357-.215.534a1 1 0 0 1-.05.122l-.379.65-.025.064c.07.023.145.023.214 0q.206-.076.387-.198c.176-.117.349-.235.513-.37q.144-.105.269-.235l.046-.033a1 1 0 0 0 .08-.063q.074-.07.143-.143c.046-.05.063-.042.075-.068.038-.096.143-.142.18-.239q.243-.265.421-.576a3.6 3.6 0 0 0 .256-.487q.178-.371.286-.77a.1.1 0 0 1 0-.041q.082-.218.13-.446.067-.23.106-.466.071-.346.13-.694a8 8 0 0 0 .059-.45c.017-.15.03-.335.05-.503 0-.08.025-.156.03-.231 0-.148 0-.29.029-.42a.1.1 0 0 1 0-.03q.031-.12.025-.244v-.248a.46.46 0 0 1 .063-.24.34.34 0 0 1 .147-.15.32.32 0 0 1 .215 0c.155.033.294.117.453.146.16.03.219.072.332.105l.42.122.471.156c.303.1.61.197.912.307.42.147.84.269 1.29.42l.26.088q.207.064.387.18a.45.45 0 0 1 .202.287q.028.105.025.214V38.7q-.015.16-.063.311a.7.7 0 0 1-.1.194.48.48 0 0 1-.316.155 1.5 1.5 0 0 1-.534-.117l-.189-.076c-.189-.072-.382-.139-.567-.223-.248-.117-.491-.248-.74-.374l-.247-.117H49.7v.05q.08.123.19.218a.3.3 0 0 1 .07.072.36.36 0 0 0 .13.155s.043.03.051.05a.4.4 0 0 0 .139.16q.026.018.038.047a.2.2 0 0 0 .08.1c.092.072.134.19.235.253l.003.012-.003.013a.2.2 0 0 0 .084.1q.042.028.071.068a.4.4 0 0 0 .13.155q.042.03.068.076.03.057.08.097.048.05.096.109l.093.11a1 1 0 0 1 .1.121q.202.302.303.652a.25.25 0 0 1 0 .235c0 .03-.033.063 0 .1a1 1 0 0 1 .143-.172c.063-.08.118-.163.185-.24q.12-.133.223-.28c.03-.047.071-.089.105-.135a6 6 0 0 1 .16-.206l.214-.27.24-.285.42-.517c.105-.134.218-.256.315-.39.096-.135.26-.328.386-.496s.198-.248.299-.37l.121-.16V27.8a.5.5 0 0 1 0-.16q.027-.144.021-.29a1 1 0 0 1 0-.1v-.144a.5.5 0 0 1 .03-.197q.028-.098.046-.198a.3.3 0 0 0 0-.088.7.7 0 0 0-.206.009M18.514 38.96c.046-.055.088-.114.139-.164a.26.26 0 0 0 .092-.218V27.072q.008-.597.084-1.19v-.134h-.092l-1.034.05c-.151 0-.298.026-.45.038h-.42a.5.5 0 0 1-.155-.029l-1.975-.656a.4.4 0 0 1-.093-.042 3.6 3.6 0 0 1-.42-.344l-.895-1.034-.668-.735c0-.021-.034-.06-.088-.047v.173l-.042 8.854c0 .197 0 .395-.026.597a.1.1 0 0 1 0 .025q-.034.21-.042.42c-.025.126 0 .26-.029.39-.03.131-.046.375-.067.56 0 .096-.021.193-.038.285-.05.236-.088.467-.122.702a1 1 0 0 1-.03.172 6 6 0 0 0-.138.627c-.025.155-.05.315-.084.47-.034.156-.093.42-.13.61 0 .084-.047.16-.063.24-.017.079-.05.213-.08.319-.072.222-.13.445-.214.663-.085.219-.101.332-.177.492s-.118.282-.185.42a4.4 4.4 0 0 1-.42.757c-.126.172-.236.353-.366.52l-.071.09a.44.44 0 0 0-.101.171h.034q.151-.023.29-.088c.206-.1.42-.214.605-.336q.234-.145.454-.315.242-.165.45-.374a.13.13 0 0 1 .045-.038.2.2 0 0 0 .101-.08l.29-.286c0-.025.059-.042.072-.071.042-.1.138-.16.197-.248.105-.16.24-.311.349-.47q.125-.185.227-.383.299-.549.504-1.139c.072-.223.147-.441.206-.664a6 6 0 0 0 .11-.45c.029-.15.07-.352.1-.529a.55.55 0 0 1 .135-.269.35.35 0 0 1 .285-.118.9.9 0 0 1 .366.089q.075.028.155.038h.085l1.16.378c.054.02.108.033.163.05a1 1 0 0 1 .26.168c0 .047 0 .084.022.122q.045.161.046.328v3.874a.4.4 0 0 1-.05.198.42.42 0 0 1-.488.252c-.097 0-.19-.042-.282-.072l-.6-.218-.58-.223-.517-.193h-.063c0 .03 0 .046.033.063.105.114.236.202.332.328h.038l.055.042.147.143q.17.135.31.298s.034.042.056.046a.24.24 0 0 1 .1.08q.05.056.105.105.078.052.143.118.135.151.294.277a.8.8 0 0 1 .219.282q.077.165.122.34a.25.25 0 0 1 0 .156.6.6 0 0 0 0 .138c.025 0 .038 0 .046-.033l.19-.252q.073-.07.138-.148.102-.146.223-.277c.075-.092.16-.18.226-.277.118-.177.257-.332.387-.496s.206-.252.303-.383c.096-.13.176-.226.269-.336.092-.109.163-.21.243-.315zm-4.004-12.455a1.3 1.3 0 0 0 0-.219v-.32a.5.5 0 0 1 .084-.226.33.33 0 0 1 .285-.143c.213 0 .423.038.622.113.286.088.572.185.84.282q.063.023.118.059l.244.143a.4.4 0 0 0 .03.075c.054.093.076.2.063.307v3.463a1 1 0 0 1 0 .16.164.164 0 0 1-.223.142h-.055l-.634-.21c-.223-.071-.446-.151-.673-.219a.7.7 0 0 1-.235-.105.3.3 0 0 0-.1-.054.6.6 0 0 1-.245-.177.4.4 0 0 1-.105-.18 1.5 1.5 0 0 1-.063-.42v-2.11q.005-.183.046-.361m2.315 6.4v1.73a.46.46 0 0 1-.038.215.154.154 0 0 1-.15.108.2.2 0 0 1-.064-.015l-.719-.244-.483-.151-.214-.084-.353-.13a1 1 0 0 1-.232-.123.42.42 0 0 1-.222-.382v-.353c0-.231.03-.462.046-.693l.08-1.74v-.521a.45.45 0 0 1 .096-.27.25.25 0 0 1 .198-.104c.142-.01.285.007.42.05l.55.19q.315.117.644.193a.6.6 0 0 1 .269.16.1.1 0 0 1 .033.046c.05.115.08.24.088.365v1.748zm-5.547 2.975V24.194a1 1 0 0 1 0-.23.4.4 0 0 0 0-.22h-.071l-.42.055h-.101c-.223 0-.42.042-.66.072h-.332a.56.56 0 0 1-.37-.038 4 4 0 0 0-.5-.193.3.3 0 0 0 0 .142v.164c.122.055.24.114.361.16a.42.42 0 0 1 .244.349 1 1 0 0 0 0 .088v4.253a.84.84 0 0 1-.092.365.7.7 0 0 1-.261 0c-.227-.08-.458-.147-.672-.214-.068-.076-.118-.139-.177-.193a.4.4 0 0 1-.084-.118 1.06 1.06 0 0 1-.084-.466v-4.123q0-.111.05-.21l.135-.29-.151-.151-1.177-1.336-.643-.732c0-.02-.03-.054-.08-.033V33.48a.4.4 0 0 1 0 .067h-.038l-.563-.18c-.121-.038-.24-.084-.361-.114-.223-.058-.441-.138-.664-.214h-.025l-.694-.231c-.226-.076-.462-.143-.689-.227s-.454-.139-.676-.219-.534-.168-.799-.256l-.647-.21a2.6 2.6 0 0 1-.395-.139h-.03a1.3 1.3 0 0 1-.277-.084.26.26 0 0 0-.168-.025v.534q.007.06.03.117l.794.26c.1.035.202.077.302.102.257.063.496.16.748.23.253.072.572.186.84.282.144.047.287.097.421.14l.446.125c.15.046.306.089.458.139.15.05.365.126.55.189l1.92.634c.051 0 .106.026.156.038s.097.021.143.038c.349.114.69.252 1.05.34a.1.1 0 0 1 .038 0 .7.7 0 0 0 .248.08c.06 0 .114.03.168.05l.454.173.664.227.11.034q.172.03.331.1h.072l.74.248q.21.089.428.152m-1.967-1.374a.56.56 0 0 1-.348-.038 3 3 0 0 0-.454-.156 1 1 0 0 1-.315-.164.3.3 0 0 1-.114-.214l-.02-4.202v-.126c0-.042.033-.135.05-.198a.1.1 0 0 1 .025-.033.42.42 0 0 1 .349-.101c.138.03.268.084.42.122q.109.057.23.08c.08.067.186.1.224.214q.063.192.071.395v4.063a.48.48 0 0 1-.118.358m22.436-5.043.48.139c.155.05.306.113.466.155q.23.092.47.151h.038c.256.097.525.164.782.265.058.021.126.021.184.042l.812.273.23.088c0 .14.03.265.034.391l-.147 2.997v.147c0 .168-.05.331-.071.5s-.038.336-.059.504c-.038.294-.114.58-.126.878v.072c-.05.23-.1.466-.156.697q-.06.351-.168.69c-.038.1-.05.214-.084.323q-.143.458-.302.92c-.026.084-.06.164-.089.244-.071.18-.15.357-.205.542-.106.324-.261.622-.383.937-.054.139-.134.265-.202.4-.067.134-.075.146-.109.222a3 3 0 0 1-.155.307c-.047.08-.093.168-.143.248s-.156.235-.231.357-.135.176-.194.269a.8.8 0 0 1-.121.143.3.3 0 0 0-.101.1.45.45 0 0 1-.122.143c-.034.034-.084.06-.105.101a.55.55 0 0 1-.16.181s-.038.034 0 .072a.26.26 0 0 0 .16 0 1.3 1.3 0 0 0 .42-.148l.198-.1.344-.177q.118-.074.244-.134.135-.064.26-.148a6 6 0 0 0 .513-.344q.301-.21.563-.467a.1.1 0 0 1 .034-.029c.067 0 .105-.084.151-.13l.135-.135c.046-.046.041-.03.05-.05a.3.3 0 0 1 .122-.139c.054-.038.071-.105.113-.147q.147-.148.26-.324.294-.401.526-.84c.08-.147.16-.29.227-.42q.222-.449.378-.925a.4.4 0 0 1 .03-.063l.037-.096c.038-.126.08-.257.118-.387 0-.042.03-.084.042-.126q.059-.22.118-.445c.038-.152.109-.42.143-.605s.092-.42.134-.656a.4.4 0 0 0 0-.072q.021-.283.093-.558.026-.099.071-.19a.307.307 0 0 1 .387-.142c.184.08.382.134.575.197.597.198 1.198.387 1.803.576a.2.2 0 0 0 .072 0v-.383c-.32-.1-.643-.189-.954-.29-.202-.067-.42-.147-.61-.197-.189-.05-.42-.135-.622-.202a.8.8 0 0 1-.31-.143c-.047-.037-.085-.08-.13-.113a.24.24 0 0 1-.106-.168c0-.093-.034-.18-.046-.273a.3.3 0 0 1 0-.101c0-.13.038-.27.05-.42.013-.152 0-.395 0-.597a.3.3 0 0 1 0-.084c0-.097.03-.16.03-.244v-.231a1 1 0 0 0 0-.1v-.669a.53.53 0 0 1 .084-.332.35.35 0 0 1 .361-.126l.744.24.538.184.777.236c.357.109.71.227 1.063.34l.345.11c.172.054.345.104.513.163s.42.143.634.215c.215.071.4.113.597.18.273.089.538.185.815.26a1 1 0 0 1 .097.039.4.4 0 0 0 .067 0q.21.028.42 0c.025 0 .042 0 .076-.026-.034-.059-.03-.121-.08-.16a3 3 0 0 1-.298-.247c-.093-.093-.118-.08-.173-.126-.054-.047-.184-.168-.285-.24s-.286-.235-.42-.344c-.135-.11-.261-.227-.42-.328-.06-.042-.11-.114-.194-.118-.072.105-.139.223-.219.32a2.6 2.6 0 0 1-.243.331l-.248-.084a2 2 0 0 0-.231-.08c-.164-.033-.316-.1-.471-.146-.156-.047-.383-.14-.584-.181h-.042c-.42-.156-.84-.29-1.294-.42-.152-.047-.299-.114-.454-.152s-.35-.113-.526-.164a.33.33 0 0 1-.21-.134v-.093a.18.18 0 0 1 .055-.172.55.55 0 0 1 .185-.155c.084-.097.189-.164.265-.265q.07-.09.126-.193.143-.322.184-.673a1.87 1.87 0 0 0-.264-1.126 3.7 3.7 0 0 0-.5-.643l-.11-.117c-.037-.034-.088-.06-.126-.097a.8.8 0 0 0-.18-.16c-.076-.046-.135-.11-.202-.16l-.269-.193a5 5 0 0 0-.492-.323 2 2 0 0 1-.273-.16c-.147-.13-.323-.21-.475-.328a.2.2 0 0 0-.08-.025v.092c0 .026.03.084.042.127.051.184.097.37.152.558.055.19.096.303.134.454s.089.328.135.492c.096.366.202.727.294 1.093q.062.306.155.605a.2.2 0 0 1 0 .071c0 .139.055.273.084.42q.032.165.038.332a.2.2 0 0 1-.143.18 1 1 0 0 1-.458-.041l-.45-.16-2.403-.748-1.719-.508a.24.24 0 0 0-.164-.026v.585c.009.03.026.063.034.096zm7.45 15.548c.127-.172.27-.328.42-.487.08-.097.152-.198.228-.299l.21-.252.244-.302.332-.42c.222-.286.453-.568.672-.841.092-.122.202-.235.298-.357.097-.122.152-.194.227-.29l.29-.37.244-.298q.095-.138.206-.26a.36.36 0 0 0 .105-.245q-.01-.26.05-.517a1 1 0 0 0 0-.075l.118-3.312a2 2 0 0 1 0-.189c0-.147.042-.294.067-.44l.076-.459v-.13h-.067l-2.228.071v1.004c0 .278 0 .572-.029.841s0 .5-.046.752c-.047.252 0 .42-.025.639s0 .307-.026.462c0 .06 0 .114-.02.173 0 .134 0 .273-.034.42s0 .193 0 .29l-.08.462a3 3 0 0 1-.034.361c-.038.164 0 .337-.059.505 0 .092 0 .189-.029.285-.034.194-.067.391-.11.584a1.1 1.1 0 0 1-.172.396.57.57 0 0 1-.664.214 5 5 0 0 1-.684-.244c-.068-.03-.14-.05-.202-.084l-.45-.227c-.23-.117-.462-.223-.685-.353a.6.6 0 0 0-.122-.046.3.3 0 0 0-.126-.05.3.3 0 0 0 .084.155c.097.11.198.214.294.32q.09.132.215.23s0 .026.025.038l.072.089c0 .025.058.042.07.067q.058.105.152.176.032.02.05.05c0 .064.068.093.11.135s.059.042.071.072c.03.06.076.112.13.15a.2.2 0 0 1 .06.064q.042.085.121.139l.084.1c.026.034.055.063.084.097s.072.093.101.139.063.117.101.176q.166.261.26.555a.4.4 0 0 1 0 .269c0 .004-.012.033.022.059zm10.83-7.82q.044.009.088 0c.148-.023.291-.075.42-.151a.4.4 0 0 0 .198-.135 1.524 1.524 0 0 0 .361-.69q.06-.26.059-.529a1.4 1.4 0 0 0 0-.184 2.2 2.2 0 0 0-.172-.61 2.1 2.1 0 0 0-.303-.504c-.02-.072-.096-.097-.126-.156a.5.5 0 0 0-.092-.109l-.127-.122c-.07-.067-.121-.16-.222-.201a.07.07 0 0 1-.03-.03.6.6 0 0 0-.142-.122c-.072-.046-.135-.105-.206-.16-.072-.054-.152-.117-.232-.167-.176-.11-.36-.206-.533-.32-.172-.113-.42-.223-.605-.336l-.139-.076v.038c.046.135.088.273.143.42a1 1 0 0 1 .059.181c0 .084.05.168.075.252.026.084.03.101.047.151l.063.223.075.219c.135.42.265.874.42 1.307a.2.2 0 0 1 0 .046.8.8 0 0 0 .068.281l.176.584v.085c0 .029.038.16.063.235q.04.132.093.26.051.13.164.215a.84.84 0 0 0 .357.096zm.84-8.287q-.068-.161-.164-.307a4 4 0 0 0-.45-.559.7.7 0 0 0-.222-.201.4.4 0 0 1-.059-.063.15.15 0 0 0-.05-.055 1.6 1.6 0 0 1-.273-.206 6 6 0 0 0-.84-.542 2 2 0 0 0-.173-.1c-.097-.047-.185-.102-.278-.156l-.189-.097-.02.025.176.458.088.244c.03.097.055.193.084.29.072.227.147.454.206.68.093.337.206.669.298 1.005q.143.37.231.756.01.045.03.084.015.04.025.08.041.26.139.505.027.076.071.142a.37.37 0 0 0 .177.164.72.72 0 0 0 .567 0q.15-.057.282-.147.18-.12.306-.294.11-.162.169-.349a2.6 2.6 0 0 0 .07-.474.4.4 0 0 0 0-.101c0-.093 0-.181-.029-.274a.5.5 0 0 0 0-.113c-.041-.13-.1-.269-.155-.403zm9.938 3.782-.52-.176c-.068 0-.135-.026-.198-.047-.164-.05-.324-.109-.483-.164l-.496-.163c-.164-.047-.324-.101-.483-.152a19 19 0 0 1-.938-.306l-.42-.135-.42-.134-.807-.248-.344-.114c-.085-.025-.169-.046-.248-.075l-.328-.118c-.042 0-.084 0-.126-.025v.672l.23.076c.362.122.732.222 1.085.361h.059l.277.08.29.1c.488.156.971.324 1.463.476.117.033.23.075.344.113s.185.05.277.084c.181.067.366.122.551.185l.55.177.11.029.512.16a1 1 0 0 0 .089 0v-.622zM18.004 48.5h27.255v-2.19H18.003zm21.65-.954h.504a.7.7 0 0 0-.046.135 2 2 0 0 0-.232 0h-.26q.02-.068.034-.135m-3.274-.693a.53.53 0 0 1 .361-.114 1 1 0 0 1 .185 0q.096.024.185.063a1 1 0 0 0-.03.252h-.062v-.071a.2.2 0 0 0 0-.1.3.3 0 0 0-.101-.056.6.6 0 0 0-.168-.025.32.32 0 0 0-.231.072.24.24 0 0 0-.084.193.22.22 0 0 0 .033.126q.035.051.093.076.12.036.247.042a1 1 0 0 1 .257.046q.066.033.105.097a.34.34 0 0 1 .042.16.42.42 0 0 1-.155.319.61.61 0 0 1-.42.134 1 1 0 0 1-.177 0 1 1 0 0 1-.18-.05q.014-.145.012-.29h.063v.042a.5.5 0 0 0 0 .113.1.1 0 0 0 .046.042.3.3 0 0 0 .118.055q.075.01.15 0a.4.4 0 0 0 .27-.084.26.26 0 0 0 .096-.206.24.24 0 0 0-.033-.126.2.2 0 0 0-.093-.076.8.8 0 0 0-.197-.012 1 1 0 0 1-.282-.047.25.25 0 0 1-.138-.121.35.35 0 0 1-.047-.177.38.38 0 0 1 .143-.277zm-.693-.089h.508v.299h-.059v-.118a.3.3 0 0 0 0-.075.06.06 0 0 0-.046 0h-.303v.815a2 2 0 0 0 0 .32s.047.033.105.033h.072v.054h-.58v-.054h.067a.15.15 0 0 0 .08 0 .1.1 0 0 0 .025-.063V46.84h-.092a1 1 0 0 0-.248 0s-.025.034-.034.08v.122h-.054v-.299zm-2.14 1.261h.06c.063 0 .1 0 .113-.033q.015-.15 0-.299v-.571q.015-.137 0-.273c0-.026-.046-.034-.105-.034h-.067v-.059h.537v.059h-.037a.25.25 0 0 0-.105 0 .05.05 0 0 0-.026.046 2 2 0 0 0 0 .244v.21h.77v-.176a2 2 0 0 0 0-.265.058.058 0 0 0-.025-.055.13.13 0 0 0-.085 0h-.067v-.059h.55v.06H34.9a.1.1 0 0 0-.026.054v.773q-.018.157 0 .315s.042.034.101.034h.055v.054h-.538v-.054h.063q.046.01.093 0a.1.1 0 0 0 .025-.063v-.513h-.752v.551q.01.017.029.025a.1.1 0 0 0 .072 0h.063v.054h-.53zm-1.36-.945a.66.66 0 0 1 .264-.24 1 1 0 0 1 .42-.084q.096-.008.193 0c.06 0 .139.03.236.055h.075q-.03.134-.038.273h-.058v-.063a.25.25 0 0 0 0-.105.6.6 0 0 0-.147-.072.8.8 0 0 0-.274-.042.56.56 0 0 0-.42.143.56.56 0 0 0-.155.42c-.005.152.044.301.138.42a.55.55 0 0 0 .454.202.8.8 0 0 0 .32-.067v-.164a1 1 0 0 0 0-.13h-.207v-.059h.467v.046l-.067.042a1 1 0 0 0 0 .156 2 2 0 0 0 0 .193q-.136.048-.277.076a2 2 0 0 1-.295.03.84.84 0 0 1-.378-.085.63.63 0 0 1-.34-.58.68.68 0 0 1 .096-.382zm-.686.928h.055c.059 0 .092 0 .105-.042q.015-.2 0-.399v-.31q.021-.21 0-.421 0-.038-.088-.038H31.5v-.059h.525v.06h-.151c-.008 0 0 .033 0 .075v.668a2 2 0 0 0 0 .395q0 .038.101.038h.059v.054H31.5zm-1.58 0h.067a.15.15 0 0 0 .08 0 .1.1 0 0 0 0-.067 2 2 0 0 0 0-.273v-.731a.14.14 0 0 0 0-.072.1.1 0 0 0-.038-.033.1.1 0 0 0-.067 0h-.055v-.06h.324c.059.077.118.148.168.22l.168.21.315.386q.17.208.244.29v-.61q.015-.21 0-.42c0-.025-.042-.037-.105-.046h-.067v-.059h.45v.06h-.072c-.059 0-.088 0-.1.054-.013.055 0 .16 0 .42v.84a.7.7 0 0 1-.148-.029.1.1 0 0 1-.038-.025l-.214-.252-.66-.82v.912a.2.2 0 0 0 0 .08q.045.006.088 0h.06v.055h-.42zm-1.357 0h.075a.11.11 0 0 0 .089-.03q.015-.126 0-.251v-.597q.012-.142 0-.286s-.042-.03-.089-.03h-.075v-.058h.525v.059h-.151a.1.1 0 0 0 0 .055v.491q.077-.063.13-.113l.18-.177.261-.273v-.063h.32v.059h-.05a.25.25 0 0 0-.114.025 2 2 0 0 0-.21.177l-.353.323.626.584.059.055q.014.014.033.02h.063v.056h-.265l-.634-.601c0-.021-.034-.03-.038-.03s0 0 0 .038v.277a2 2 0 0 0 0 .227s.042.034.101.034h.067v.055h-.55zm-1.26 0h.066c.055 0 .084 0 .097-.038q.015-.18 0-.36v-.421a1.4 1.4 0 0 0 0-.32s-.046-.033-.11-.033h-.05v-.059h.627a.7.7 0 0 1 .239.034.3.3 0 0 1 .134.075q.045.072.043.156a.32.32 0 0 1-.093.227.47.47 0 0 1-.269.134q.09.133.223.303l.176.23a.3.3 0 0 0 .063.068h.055v.055h-.244l-.323-.42c-.063-.08-.126-.16-.198-.24v-.03h.076a.34.34 0 0 0 .243-.08.27.27 0 0 0 .084-.21.24.24 0 0 0-.07-.184.3.3 0 0 0-.215-.068.5.5 0 0 0-.194.038v.757q-.015.178 0 .357 0 .038.101.038h.072v.054h-.53zm-1.484 0h.03a.16.16 0 0 0 .079 0 .12.12 0 0 0 .042-.054l.135-.286.252-.576a7 7 0 0 0 .138-.328h.063l.488 1.064.063.134s.02.025.038.03q.044.008.088 0v.054h-.517v-.054h.092a.1.1 0 0 0 .055 0 .03.03 0 0 0 0-.026.3.3 0 0 0-.03-.088l-.1-.256h-.53l-.063.151a.7.7 0 0 0-.066.193l.003.017h.147v.055h-.42zm-2.942-.462h.492a1 1 0 0 0-.046.135 2 2 0 0 0-.232 0h-.26a.5.5 0 0 0 .063-.135zm3.593-.55-.231.55h.462z"></path></svg>
