<svg xmlns="http://www.w3.org/2000/svg" fill="none" viewBox="0 0 70 68" style="opacity: 0.7; height: 68px;"><path fill="#fff" d="M54.864 39.829c-.04-.108-.089-.274-.089-.274s-.052.166-.089.274l-.133.37h.448zM12.01 25.589q.354.22.63.533l.37-.34a2.9 2.9 0 0 0-.659-.504zm-4.753.673c.17.126.314.285.422.466a2.31 2.31 0 0 0 1.093-1.612h1.112c-.045.588-.115.898-.208.976a.3.3 0 0 1-.189.048c-.126 0-.392 0-.652-.026.113.163.183.351.204.548q.335.02.67 0a.67.67 0 0 0 .464-.207c.163-.178.244-.614.31-1.639v-.23H8.839c0-.129.019-.255.026-.37h1.952v-.561H9.26l.26-.111A5 5 0 0 0 9.238 23l-.552.207q.117.217.208.448H7.308v.543h.93c-.026.773-.093 1.58-.982 2.064m5.009 10.223-2.2 1.627 5.241 3.7v-3.233zm-1.5-11.266h.492a1.7 1.7 0 0 1-.574 1.11q.241.154.43.37c.417-.384.67-.914.704-1.48h1.418v.88c0 .056-.022.074-.077.074h-.37q.106.253.144.526c.222.022.445-.011.652-.097.159-.088.207-.233.207-.492v-.89h.478v-.504h-.478v-1.22H12.68c.07-.115.155-.256.226-.396l-.7-.045q-.043.226-.127.44h-.789v1.221h-.526zm2.47-1.217v.714h-.592l.322-.27a2.5 2.5 0 0 0-.545-.444zm-1.367 0h.53l-.34.281q.273.187.496.433h-.704zM4.83 26.406h1.593v.252h.6V23.28H4.237v3.377h.574zm0-2.563h1.593v.7H4.83zm0 1.25h1.593v.74H4.83zm47.752 2.157v14.424h-8.15v-6.287l.719-.278v5.918l2.963-1.246v-5.785l.767-.292v5.873l2.964-1.246v-8.97l-3.734 1.432v-3.466h-2.964v4.601l-.719.274v-3.007h-2.963v4.161l-.72.277v-2.156h-1.63v-3.299h-2.963v3.288h-.993v-2.522h-7.231v-1.617h-3.256v1.617H11.516l1.134-1.506H9.442L7.049 30.63H5.967L.29 40.383v.884l6.787-1.46v-.404l5.187-3.598 5.653 3.865v-3.081l-3.497-2.282 3.02-2.098v-.658h7.23v1.65h-5.556v2.607h5.557v.507l-9.055 6.288-5.842-4.032-2.2 1.628 5.927 4.19h4.242l6.928-4.886v4.871h3.256v-4.87l7.087 4.996v-1.56l5.701-2.098v-3.698l-1.63.599v-3.647h.863v3.022l1.482-.566v6.546l2.553 1.291H69.73v-17.14zM6.422 36.8v.37l-1.363.321 1.53-2.959h.741l1.049-1.405 1.663 1.139zm5.724-3.976-1.948-1.273h3.778zm23.973 6.028-1.767.651v1.276l-6.424-4.464v-.507h5.557v-2.607h-5.557v-1.65h6.794v2.545h1.39zm31.697.126a.74.74 0 0 1 .722.507l-.43.118a.32.32 0 0 0-.318-.24c-.134 0-.212.066-.212.14s.186.167.412.248.566.255.566.573-.292.581-.74.581a.79.79 0 0 1-.782-.562l.426-.115a.4.4 0 0 0 .37.281c.16 0 .234-.074.234-.163 0-.147-.215-.184-.482-.284s-.478-.207-.478-.533a.63.63 0 0 1 .712-.551m-3.957.037h.448v.718H65v-.718h.445v1.85H65v-.74h-.693v.74h-.448zm-2.675 0h.445v1.85h-.445zm-1.948 0h.418l.397.529c.118.159.4.558.403.558v-1.087h.445v1.85h-.419l-.37-.519c-.17-.232-.419-.584-.422-.584v1.102h-.445zm-3.486 0h.692c.467 0 .741.255.741.636a.55.55 0 0 1-.333.533l.411.684h-.496l-.345-.603h-.211v.603h-.445zm-1.19 0h.423l.74 1.85h-.477l-.108-.293h-.74l-.104.292h-.482zm.849 4.483h-1.62V41.3h1.601v.492h-1.07v.37h.837v.44h-.837v.37h1.089zm2.285 0h-.496l-.452-.614c-.2-.278-.496-.692-.5-.692v1.306h-.526V41.3h.489l.467.625c.144.188.478.662.481.662V41.3h.534zm.175-3.244v.614h-.449v-1.85h.449v.7s.055-.063.244-.252l.448-.447h.549l-.79.788.793 1.065h-.522l-.563-.77zm1.111 3.244h-.96V41.3h.96a1.114 1.114 0 0 1 1.137 1.11 1.08 1.08 0 0 1-1.13 1.087zm2.879-1.705h-1.041v.44h.807v.473h-.807v.803h-.534V41.3h1.567zm.74 1.705h-.53V41.3h.53zm-.833-3.558a.96.96 0 0 1 1.341-.886c.196.084.359.23.463.416l-.452.118a.53.53 0 0 0-.389-.17.486.486 0 0 0-.5.522.502.502 0 0 0 .526.532.46.46 0 0 0 .478-.292h-.485v-.37h.87v1.047h-.37v-.14a.74.74 0 0 1-.504.188.95.95 0 0 1-.978-.965m2.77 3.558h-1.618V41.3h1.6v.492h-1.07v.37h.837v.44h-.837v.37h1.089zm1.88 0h-1.572V41.3h.53v1.701h1.041zm.121-2.63h-.444v-1.439h-.556v-.414H67.1v.414h-.563zm.993 2.63h-.948V41.3h.963a1.114 1.114 0 0 1 1.137 1.11 1.08 1.08 0 0 1-1.14 1.087zm-8.543-1.705h-.433v1.21h.433a.573.573 0 0 0 .59-.596.58.58 0 0 0-.357-.568.6.6 0 0 0-.233-.046m8.554 0h-.433v1.21h.433a.57.57 0 0 0 .586-.596.584.584 0 0 0-.586-.614m-10.817-2.15a.21.21 0 0 0-.222-.221h-.293v.44h.307a.21.21 0 0 0 .208-.218M.269 44.386l7.135-1.435v-2.489L.27 41.896zm6.394-17.058H3.407l-3.116 5.6v2.648h2.012zm-5.134-.965c.16.103.307.227.433.37.352-.32.581-.75.649-1.22h.681v.576c0 .063-.022.085-.092.085h-.478q.136.249.192.526c.242.021.486-.015.712-.104.166-.085.218-.233.218-.503v-2.877H2.14v1.398c0 .57-.048 1.287-.611 1.749m1.16-2.622h.603v.37h-.604zm0 .887h.603v.381h-.615q.011-.21.011-.392zM1.01 25.652h.826v-2.393H.484v2.7h.526zm0-1.89h.326v.436H1.01zm0 .932h.326v.451H1.01z"></path></svg>